# xmcd
#
# Track frame offsets:
#	150
#	21162
#	33913
#	52989
#	69820
#	88002
#	105148
#	121779
#	139894
#	157401
#	175557
#
# Disc length: 2633 seconds
#
# Revision: 1
# Processed by: cddbd v1.5.2PL0 Copyright (c) Steve Scherf et al.
# Submitted via: EZCDAudioConverter 2.1.3.1
#
DISCID=800a470b
DTITLE=Aaron Pritchett - Big Wheel
DYEAR=2006
DGENRE=Big Wheel
TTITLE0=Big Wheel
TTITLE1=Drivin' Song
TTITLE2=Lonely's To The Bone
TTITLE3=Gone
TTITLE4=On My Way To You
TTITLE5=The Weight
TTITLE6=Warm Safe Place
TTITLE7=You're Not Gonna Miss Me
TTITLE8=Done You Wrong
TTITLE9=Hold My Beer
TTITLE10=Something 'Bout a Train
EXTD=
EXTT0=
EXTT1=
EXTT2=
EXTT3=
EXTT4=
EXTT5=
EXTT6=
EXTT7=
EXTT8=
EXTT9=
EXTT10=
PLAYORDER=
